<svg width="24" height="24" viewBox="0 0 24 24" fill="none" xmlns="http://www.w3.org/2000/svg">
<g clip-path="url(#clip0_4132_2415)">
<path d="M18.0013 0.629272L13.825 4.80565C16.1985 5.8856 18.1144 7.80148 19.1943 10.175L23.3707 5.99866C22.4186 3.54087 20.4591 1.5814 18.0013 0.629272Z" fill="#C030CD"/>
<path d="M23.819 7.53912L19.7316 11.6266C20.0077 12.5789 20.1563 13.5849 20.1563 14.625C20.1563 15.4946 20.0527 16.3407 19.8572 17.1511C22.3547 15.465 24 12.6085 24 9.37503C24 8.74686 23.9374 8.13303 23.819 7.53912Z" fill="#C030CD"/>
<path d="M12.3734 4.26844L16.4608 0.180984C15.867 0.0625781 15.2531 0 14.625 0C11.3915 0 8.53497 1.64531 6.84888 4.14281C7.65935 3.94734 8.50544 3.84375 9.37497 3.84375C10.4151 3.84375 11.4211 3.9923 12.3734 4.26844Z" fill="#C030CD"/>
<path d="M9.375 13.9219C9.8151 13.9219 10.1719 13.5651 10.1719 13.125C10.1719 12.6849 9.8151 12.3281 9.375 12.3281C8.9349 12.3281 8.57812 12.6849 8.57812 13.125C8.57812 13.5651 8.9349 13.9219 9.375 13.9219Z" fill="#C030CD"/>
<path d="M9.375 16.9219C9.8151 16.9219 10.1719 16.5651 10.1719 16.125C10.1719 15.6849 9.8151 15.3281 9.375 15.3281C8.9349 15.3281 8.57812 15.6849 8.57812 16.125C8.57812 16.5651 8.9349 16.9219 9.375 16.9219Z" fill="#C030CD"/>
<path d="M9.375 9.32812C6.45427 9.32812 4.07812 11.7043 4.07812 14.625C4.07812 17.5457 6.45427 19.9219 9.375 19.9219C12.2957 19.9219 14.6719 17.5457 14.6719 14.625C14.6719 11.7043 12.2957 9.32812 9.375 9.32812ZM11.5781 16.125C11.5781 17.3398 10.5898 18.3281 9.375 18.3281C8.16019 18.3281 7.17188 17.3398 7.17188 16.125C7.17188 15.5459 7.39678 15.0186 7.76344 14.625C7.39683 14.2314 7.17188 13.7041 7.17188 13.125C7.17188 11.9102 8.16019 10.9219 9.375 10.9219C10.5898 10.9219 11.5781 11.9102 11.5781 13.125C11.5781 13.7041 11.3532 14.2314 10.9866 14.625C11.3532 15.0186 11.5781 15.5459 11.5781 16.125Z" fill="#C030CD"/>
<path d="M9.375 5.25C4.20563 5.25 0 9.45563 0 14.625C0 19.7944 4.20563 24 9.375 24C14.5444 24 18.75 19.7944 18.75 14.625C18.75 9.45563 14.5444 5.25 9.375 5.25ZM9.375 21.3281C5.67886 21.3281 2.67188 18.3211 2.67188 14.625C2.67188 10.9289 5.67886 7.92188 9.375 7.92188C13.0711 7.92188 16.0781 10.9289 16.0781 14.625C16.0781 18.3211 13.0711 21.3281 9.375 21.3281Z" fill="#C030CD"/>
</g>
<defs>
<clipPath id="clip0_4132_2415">
<rect width="24" height="24" fill="white"/>
</clipPath>
</defs>
</svg>
