<svg width="40" height="40" viewBox="0 0 40 40" fill="none" xmlns="http://www.w3.org/2000/svg">
<g clip-path="url(#clip0_4132_2673)">
<path d="M25.6249 9.45337H14.375C13.3842 9.45337 12.5781 10.2594 12.5781 11.2502C12.5781 12.2411 13.3842 13.0471 14.375 13.0471H25.6249C26.6157 13.0471 27.4218 12.2411 27.4218 11.2502C27.4218 10.2594 26.6157 9.45337 25.6249 9.45337Z" fill="#F1F191" fill-opacity="0.2"/>
<path d="M26.9999 7.10953C27.6843 5.76501 28.0468 4.26736 28.0468 2.71502V1.17207C28.0468 0.736912 27.8054 0.337695 27.4202 0.134572C27.0351 -0.067771 26.5694 -0.0404275 26.2109 0.206446L23.189 2.28378L20.746 0.268164C20.3125 -0.0888647 19.6875 -0.0888647 19.2539 0.268164L16.8109 2.28378L13.7891 0.206446C13.4305 -0.0404275 12.9648 -0.067771 12.5797 0.134572C12.1945 0.337695 11.9531 0.736912 11.9531 1.17207V2.71502C11.9531 4.26736 12.3156 5.76501 13 7.10953H26.9999Z" fill="#F1F191" fill-opacity="0.2"/>
<path d="M39.3389 5.19556L39.3194 5.18618C37.978 4.53618 36.9436 3.35024 36.4811 1.93384L36.1139 0.808057C35.9561 0.326025 35.5069 0.000244141 34.9999 0.000244141C34.4928 0.000244141 34.0436 0.326025 33.8858 0.808057L33.5038 1.97915C33.0491 3.37212 32.0366 4.54712 30.7257 5.20181C30.3288 5.40024 30.078 5.80649 30.078 6.25024C30.078 6.69399 30.3288 7.10024 30.7257 7.29868L30.7475 7.30884C32.0655 7.96821 33.0483 9.10103 33.5147 10.4995L33.8882 11.6206C34.0475 12.0995 34.4952 12.4221 34.9999 12.4221C35.5046 12.4221 35.9522 12.0995 36.1116 11.6206L36.4702 10.5447C36.9374 9.14313 37.9678 7.9697 39.2983 7.32438L39.3397 7.30407C39.7436 7.10798 39.9999 6.6986 39.9999 6.24938C39.9999 5.80103 39.7428 5.39165 39.3389 5.19556Z" fill="#F1F191" fill-opacity="0.2"/>
<path d="M6.11176 19.1208L6.47793 18.0223C6.94887 16.6094 7.94192 15.4645 9.27418 14.7982C9.67122 14.5997 9.922 14.194 9.922 13.7501C9.922 13.3062 9.67122 12.9005 9.27418 12.702C7.942 12.0358 6.94887 10.8908 6.47793 9.47773L6.11176 8.37938C5.95223 7.90086 5.5045 7.57812 5.00004 7.57812C4.49559 7.57812 4.04786 7.90094 3.88833 8.37945L3.53747 9.43195C3.06528 10.8486 2.02387 12.0346 0.68145 12.6855L0.661919 12.695C0.257231 12.8907 0.00012207 13.3005 0.00012207 13.7501C0.00012207 14.1996 0.257231 14.6095 0.661919 14.8052L0.680278 14.814C2.02387 15.4655 3.06528 16.6516 3.53754 18.0681L3.8884 19.1206C4.04793 19.5991 4.49567 19.922 5.00012 19.922C5.50442 19.922 5.95231 19.5992 6.11176 19.1208Z" fill="#F1F191" fill-opacity="0.2"/>
<path d="M26.903 15.3906H13.0968L8.20936 20.5828C6.18984 22.7289 5.07812 25.5328 5.07812 28.4788C5.07812 34.8319 10.2461 39.9999 16.5992 39.9999H23.4007C29.7538 39.9999 34.9217 34.8319 34.9217 28.4788C34.9217 25.5328 33.81 22.7289 31.7905 20.5828L26.903 15.3906ZM23.4163 29.8773C23.203 31.1468 22.3227 32.1559 21.1682 32.5717C21.1309 33.1853 20.6229 33.6718 19.9999 33.6718C19.4231 33.6718 18.9447 33.2547 18.8473 32.7058C18.3 32.6127 17.8024 32.4109 17.1718 31.9983C16.6304 31.6437 16.4781 30.9179 16.8327 30.3765C17.1866 29.8343 17.9132 29.6827 18.4546 30.0366C19.0257 30.4108 19.2109 30.4398 19.9921 30.4343C20.746 30.4296 21.046 29.8374 21.1046 29.489C21.1577 29.1757 21.0983 28.7593 20.5179 28.5538C19.5444 28.2101 18.5468 27.8156 17.8398 27.2609C17.0882 26.671 16.7421 25.6593 16.9382 24.621C17.1396 23.5537 17.8622 22.6949 18.8395 22.3445C18.9158 21.771 19.4055 21.3281 19.9999 21.3281C20.6358 21.3281 21.1521 21.8348 21.1701 22.4664C21.4251 22.5603 21.6689 22.6707 21.8937 22.7878C22.569 23.1396 22.7254 24.0369 22.2095 24.5969C21.8456 24.992 21.256 25.0873 20.7901 24.8199C20.4248 24.6102 19.9923 24.4391 19.6554 24.5406C19.3437 24.6343 19.2593 24.9578 19.2413 25.0554C19.203 25.2578 19.2577 25.3937 19.2866 25.4163C19.7288 25.7632 20.5515 26.0804 21.2983 26.3445C22.8296 26.885 23.6804 28.3054 23.4163 29.8773Z" fill="#F1F191" fill-opacity="0.2"/>
</g>
<defs>
<clipPath id="clip0_4132_2673">
<rect width="40" height="40" fill="white"/>
</clipPath>
</defs>
</svg>
