<svg width="40" height="40" viewBox="0 0 40 40" fill="none" xmlns="http://www.w3.org/2000/svg">
<g clip-path="url(#clip0_4132_2612)">
<path d="M25.625 9.45337H14.3751C13.3843 9.45337 12.5782 10.2594 12.5782 11.2502C12.5782 12.2411 13.3843 13.0471 14.3751 13.0471H25.625C26.6158 13.0471 27.4218 12.2411 27.4218 11.2502C27.4218 10.2594 26.6158 9.45337 25.625 9.45337Z" fill="#F1F191"/>
<path d="M27 7.10953C27.6843 5.76501 28.0468 4.26736 28.0468 2.71502V1.17207C28.0468 0.736912 27.8054 0.337695 27.4203 0.134572C27.0351 -0.067771 26.5695 -0.0404275 26.2109 0.206446L23.1891 2.28378L20.7461 0.268164C20.3125 -0.0888647 19.6875 -0.0888647 19.2539 0.268164L16.811 2.28378L13.7891 0.206446C13.4305 -0.0404275 12.9649 -0.067771 12.5797 0.134572C12.1946 0.337695 11.9532 0.736912 11.9532 1.17207V2.71502C11.9532 4.26736 12.3157 5.76501 13.0001 7.10953H27Z" fill="#F1F191"/>
<path d="M39.339 5.19556L39.3195 5.18618C37.9781 4.53618 36.9437 3.35024 36.4812 1.93384L36.114 0.808057C35.9562 0.326025 35.507 0.000244141 34.9999 0.000244141C34.4929 0.000244141 34.0437 0.326025 33.8859 0.808057L33.5038 1.97915C33.0492 3.37212 32.0367 4.54712 30.7257 5.20181C30.3288 5.40024 30.0781 5.80649 30.0781 6.25024C30.0781 6.69399 30.3288 7.10024 30.7257 7.29868L30.7476 7.30884C32.0656 7.96821 33.0484 9.10103 33.5148 10.4995L33.8882 11.6206C34.0476 12.0995 34.4953 12.4221 34.9999 12.4221C35.5046 12.4221 35.9523 12.0995 36.1117 11.6206L36.4703 10.5447C36.9374 9.14313 37.9679 7.9697 39.2984 7.32438L39.3398 7.30407C39.7437 7.10798 39.9999 6.6986 39.9999 6.24938C39.9999 5.80103 39.7429 5.39165 39.339 5.19556Z" fill="#F1F191"/>
<path d="M6.11182 19.1208L6.478 18.0223C6.94893 16.6094 7.94198 15.4645 9.27425 14.7982C9.67128 14.5997 9.92206 14.194 9.92206 13.7501C9.92206 13.3062 9.67128 12.9005 9.27425 12.702C7.94206 12.0358 6.94893 10.8908 6.478 9.47773L6.11182 8.37938C5.95229 7.90086 5.50456 7.57812 5.0001 7.57812C4.49565 7.57812 4.04792 7.90094 3.88839 8.37945L3.53753 9.43195C3.06534 10.8486 2.02393 12.0346 0.681511 12.6855L0.66198 12.695C0.257292 12.8907 0.000183105 13.3005 0.000183105 13.7501C0.000183105 14.1996 0.257292 14.6095 0.66198 14.8052L0.680339 14.814C2.02393 15.4655 3.06534 16.6516 3.5376 18.0681L3.88846 19.1206C4.048 19.5991 4.49573 19.922 5.00018 19.922C5.50448 19.922 5.95237 19.5992 6.11182 19.1208Z" fill="#F1F191"/>
<path d="M26.9031 15.3906H13.0969L8.20942 20.5828C6.1899 22.7289 5.07819 25.5328 5.07819 28.4788C5.07819 34.8319 10.2461 39.9999 16.5992 39.9999H23.4007C29.7538 39.9999 34.9218 34.8319 34.9218 28.4788C34.9218 25.5328 33.81 22.7289 31.7905 20.5828L26.9031 15.3906ZM23.4164 29.8773C23.2031 31.1468 22.3228 32.1559 21.1682 32.5717C21.131 33.1853 20.6229 33.6718 20 33.6718C19.4232 33.6718 18.9447 33.2547 18.8473 32.7058C18.3001 32.6127 17.8025 32.4109 17.1719 31.9983C16.6305 31.6437 16.4781 30.9179 16.8328 30.3765C17.1867 29.8343 17.9133 29.6827 18.4547 30.0366C19.0258 30.4108 19.2109 30.4398 19.9922 30.4343C20.7461 30.4296 21.0461 29.8374 21.1047 29.489C21.1578 29.1757 21.0984 28.7593 20.5179 28.5538C19.5445 28.2101 18.5469 27.8156 17.8398 27.2609C17.0883 26.671 16.7422 25.6593 16.9383 24.621C17.1397 23.5537 17.8623 22.6949 18.8396 22.3445C18.9158 21.771 19.4056 21.3281 20 21.3281C20.6358 21.3281 21.1522 21.8348 21.1701 22.4664C21.4251 22.5603 21.6689 22.6707 21.8937 22.7878C22.569 23.1396 22.7254 24.0369 22.2096 24.5969C21.8457 24.992 21.2561 25.0873 20.7902 24.8199C20.4248 24.6102 19.9924 24.4391 19.6554 24.5406C19.3437 24.6343 19.2594 24.9578 19.2414 25.0554C19.2031 25.2578 19.2578 25.3937 19.2867 25.4163C19.7289 25.7632 20.5515 26.0804 21.2984 26.3445C22.8296 26.885 23.6804 28.3054 23.4164 29.8773Z" fill="#F1F191"/>
</g>
<defs>
<clipPath id="clip0_4132_2612">
<rect width="40" height="40" fill="white"/>
</clipPath>
</defs>
</svg>
